<?xml version="1.0" encoding="UTF-8"?>
<svg version="1.1" xmlns="http://www.w3.org/2000/svg" width="1884" height="536">
<path d="M0 0 C14.87148108 11.40911662 22.97063167 25.66518232 25.6875 44.125 C26.74576291 57.24746014 24.60362376 69.38731686 21 82 C-8.7 82 -38.4 82 -69 82 C-65.92936667 72.7881 -62.42769623 64.46661377 -54 59 C-53.45375977 58.64309082 -52.90751953 58.28618164 -52.34472656 57.91845703 C-48.9849006 56.6023736 -45.72433391 56.75397202 -42.171875 56.8046875 C-41.42286926 56.8075174 -40.67386353 56.81034729 -39.90216064 56.81326294 C-37.51794224 56.8244274 -35.13410421 56.84952469 -32.75 56.875 C-31.13021377 56.88503465 -29.51042164 56.89415965 -27.890625 56.90234375 C-23.92693754 56.92435445 -19.96353319 56.95885825 -16 57 C-16.28018671 54.44796287 -16.57070668 51.89780891 -16.8671875 49.34765625 C-16.94477295 48.63113892 -17.0223584 47.91462158 -17.10229492 47.1763916 C-18.21249285 37.80406855 -21.69057672 31.45306469 -28.9375 25.375 C-35.70307481 20.86461679 -43.19299722 21.13859115 -51 22 C-60.70499401 24.96103646 -67.66766116 30.94042733 -72.52734375 39.77734375 C-81.25302741 58.21509269 -81.04522726 79.12509079 -74.93359375 98.35546875 C-70.39132502 110.18335664 -62.96874559 119.05965657 -51.375 124.375 C-32.73778021 130.49275774 -11.44361561 124.85536232 5.75 116.91796875 C8 116 8 116 11 116 C14.63 125.57 18.26 135.14 22 145 C5.29174372 157.53119221 -19.55145535 160.43628666 -39.75 160.375 C-40.45654724 160.37412384 -41.16309448 160.37324768 -41.89105225 160.37234497 C-62.31657883 160.28876418 -79.20256556 155.54065809 -95 142 C-95.58910156 141.55398438 -96.17820312 141.10796875 -96.78515625 140.6484375 C-113.12049421 127.92250223 -121.36960756 105.91762746 -124 86 C-124.29029161 81.39200629 -124.33410177 76.8037053 -124.3125 72.1875 C-124.30758545 70.94863037 -124.3026709 69.70976074 -124.29760742 68.43334961 C-124.18792335 59.89317897 -123.67762453 52.16296061 -121 44 C-120.67128906 42.93652344 -120.34257813 41.87304688 -120.00390625 40.77734375 C-113.33320351 21.411532 -100.00415731 6.28340835 -81.89794922 -3.08203125 C-56.6523343 -15.29241356 -23.71374438 -15.63441925 0 0 Z " fill="#C62F9D" transform="translate(1670,223)"/>
<path d="M0 0 C13.53403173 10.38305099 21.8394113 23.24688739 25 40 C25.41023256 44.26119992 25.46592061 48.47140572 25.4375 52.75 C25.45748047 53.801875 25.47746094 54.85375 25.49804688 55.9375 C25.49223805 65.55691683 23.48059386 72.07762457 21 82 C-8.7 82 -38.4 82 -69 82 C-65.92936667 72.7881 -62.42769623 64.46661377 -54 59 C-53.45375977 58.64309082 -52.90751953 58.28618164 -52.34472656 57.91845703 C-48.9849006 56.6023736 -45.72433391 56.75397202 -42.171875 56.8046875 C-41.42286926 56.8075174 -40.67386353 56.81034729 -39.90216064 56.81326294 C-37.51794224 56.8244274 -35.13410421 56.84952469 -32.75 56.875 C-31.13021377 56.88503465 -29.51042164 56.89415965 -27.890625 56.90234375 C-23.92693754 56.92435445 -19.96353319 56.95885825 -16 57 C-16.28018671 54.44796287 -16.57070668 51.89780891 -16.8671875 49.34765625 C-16.94477295 48.63113892 -17.0223584 47.91462158 -17.10229492 47.1763916 C-18.21249285 37.80406855 -21.69057672 31.45306469 -28.9375 25.375 C-35.70307481 20.86461679 -43.19299722 21.13859115 -51 22 C-60.70499401 24.96103646 -67.66766116 30.94042733 -72.52734375 39.77734375 C-81.25302741 58.21509269 -81.04522726 79.12509079 -74.93359375 98.35546875 C-70.39132502 110.18335664 -62.96874559 119.05965657 -51.375 124.375 C-32.73778021 130.49275774 -11.44361561 124.85536232 5.75 116.91796875 C8 116 8 116 11 116 C14.63 125.57 18.26 135.14 22 145 C5.29174372 157.53119221 -19.55145535 160.43628666 -39.75 160.375 C-40.45654724 160.37412384 -41.16309448 160.37324768 -41.89105225 160.37234497 C-62.31657883 160.28876418 -79.20256556 155.54065809 -95 142 C-95.58910156 141.55398438 -96.17820312 141.10796875 -96.78515625 140.6484375 C-113.12049421 127.92250223 -121.36960756 105.91762746 -124 86 C-124.29029161 81.39200629 -124.33410177 76.8037053 -124.3125 72.1875 C-124.30758545 70.94863037 -124.3026709 69.70976074 -124.29760742 68.43334961 C-124.18792335 59.89317897 -123.67762453 52.16296061 -121 44 C-120.67128906 42.93652344 -120.34257813 41.87304688 -120.00390625 40.77734375 C-113.33320351 21.411532 -100.00415731 6.28340835 -81.89794922 -3.08203125 C-56.6523343 -15.29241356 -23.71374438 -15.63441925 0 0 Z " fill="#C62F9D" transform="translate(711,223)"/>
<path d="M0 0 C15.84 0 31.68 0 48 0 C57.05265657 26.71993795 65.52075132 53.61673932 73.96826172 80.53320312 C75.45585738 85.27183624 76.94992745 90.00835373 78.45036316 94.74293518 C79.51284294 98.09811646 80.56854714 101.45541633 81.625 104.8125 C81.984729 105.94179932 82.34445801 107.07109863 82.71508789 108.23461914 C83.02824951 109.23614014 83.34141113 110.23766113 83.6640625 111.26953125 C83.92654785 112.10073486 84.1890332 112.93193848 84.45947266 113.78833008 C85 116 85 116 85 120 C85.66 120 86.32 120 87 120 C87.1208194 118.83116776 87.24163879 117.66233551 87.36611938 116.45808411 C87.8810241 112.36684109 88.88784921 108.60637099 90.14208984 104.6706543 C90.35865234 103.98443497 90.57521484 103.29821564 90.79833984 102.59120178 C91.51265407 100.33340177 92.23675643 98.07887138 92.9609375 95.82421875 C93.47186554 94.21575876 93.98215686 92.6070964 94.49185181 90.99824524 C95.83944753 86.7502224 97.19526744 82.5048698 98.55297852 78.2600708 C99.89017314 74.07523148 101.22038179 69.88817542 102.55078125 65.70117188 C104.12767593 60.73919914 105.70539243 55.77749839 107.2880249 50.81735229 C109.95101966 42.46816742 112.59666401 34.1140329 115.20800781 25.74853516 C115.4645772 24.92756379 115.72114658 24.10659243 115.9854908 23.26074314 C117.20862761 19.34622911 118.42859896 15.43077953 119.64315796 11.51359558 C120.07529295 10.12857188 120.50754704 8.74358533 120.93994141 7.35864258 C121.31518951 6.15017166 121.69043762 4.94170074 122.07705688 3.6966095 C123 1 123 1 124 0 C125.47354348 -0.09304018 126.95150591 -0.11746265 128.42797852 -0.11352539 C129.36887833 -0.11344986 130.30977814 -0.11337433 131.27919006 -0.11329651 C132.30209641 -0.10813522 133.32500275 -0.10297394 134.37890625 -0.09765625 C135.42070541 -0.0962413 136.46250458 -0.09482635 137.53587341 -0.09336853 C140.87811094 -0.0877508 144.22028257 -0.0751953 147.5625 -0.0625 C149.82226466 -0.05748728 152.08203037 -0.05292398 154.34179688 -0.04882812 C159.89455391 -0.03777561 165.44727225 -0.02102024 171 0 C163.4711217 20.6383975 155.82547752 41.23081976 148.10089493 61.79669189 C146.94190158 64.88292079 145.78377611 67.96947512 144.62559605 71.05600929 C133.11969977 101.71756181 121.56694429 132.3614337 110 163 C93.83 163 77.66 163 61 163 C55.24777737 147.86458363 49.50965263 132.72456991 43.828125 117.5625 C43.56548166 116.86160311 43.30283833 116.16070621 43.0322361 115.43857002 C41.38792404 111.04997069 39.74435115 106.66109472 38.10089493 102.27217484 C35.45266042 95.20050053 32.80293284 88.12938582 30.15234375 81.05859375 C29.85583609 80.26760221 29.55932842 79.47661068 29.25383568 78.6616497 C24.89324734 67.03070683 20.51729318 55.40563762 16.12890625 43.78515625 C15.85778141 43.06706158 15.58665657 42.3489669 15.30731583 41.60911179 C12.72051164 34.75777713 10.1325273 27.90689428 7.53977299 21.05780888 C6.38604694 18.00902429 5.23424918 14.95951105 4.08203125 11.91015625 C3.4559774 10.25935814 3.4559774 10.25935814 2.817276 8.57521057 C2.44291916 7.58367477 2.06856232 6.59213898 1.68286133 5.57055664 C1.35570633 4.70628555 1.02855133 3.84201447 0.69148254 2.95155334 C0 1 0 1 0 0 Z " fill="#C62F9D" transform="translate(1364,216)"/>
<path d="M0 0 C15.84 0 31.68 0 48 0 C57.05265657 26.71993795 65.52075132 53.61673932 73.96826172 80.53320312 C75.45585738 85.27183624 76.94992745 90.00835373 78.45036316 94.74293518 C79.51284294 98.09811646 80.56854714 101.45541633 81.625 104.8125 C81.984729 105.94179932 82.34445801 107.07109863 82.71508789 108.23461914 C83.02824951 109.23614014 83.34141113 110.23766113 83.6640625 111.26953125 C83.92654785 112.10073486 84.1890332 112.93193848 84.45947266 113.78833008 C85 116 85 116 85 120 C85.66 120 86.32 120 87 120 C87.1208194 118.83116776 87.24163879 117.66233551 87.36611938 116.45808411 C87.8810241 112.36684109 88.88784921 108.60637099 90.14208984 104.6706543 C90.35865234 103.98443497 90.57521484 103.29821564 90.79833984 102.59120178 C91.51265407 100.33340177 92.23675643 98.07887138 92.9609375 95.82421875 C93.47186554 94.21575876 93.98215686 92.6070964 94.49185181 90.99824524 C95.83944753 86.7502224 97.19526744 82.5048698 98.55297852 78.2600708 C99.89017314 74.07523148 101.22038179 69.88817542 102.55078125 65.70117188 C104.12767593 60.73919914 105.70539243 55.77749839 107.2880249 50.81735229 C109.95101966 42.46816742 112.59666401 34.1140329 115.20800781 25.74853516 C115.4645772 24.92756379 115.72114658 24.10659243 115.9854908 23.26074314 C117.20862761 19.34622911 118.42859896 15.43077953 119.64315796 11.51359558 C120.07529295 10.12857188 120.50754704 8.74358533 120.93994141 7.35864258 C121.31518951 6.15017166 121.69043762 4.94170074 122.07705688 3.6966095 C123 1 123 1 124 0 C125.47354348 -0.09304018 126.95150591 -0.11746265 128.42797852 -0.11352539 C129.36887833 -0.11344986 130.30977814 -0.11337433 131.27919006 -0.11329651 C132.30209641 -0.10813522 133.32500275 -0.10297394 134.37890625 -0.09765625 C135.42070541 -0.0962413 136.46250458 -0.09482635 137.53587341 -0.09336853 C140.87811094 -0.0877508 144.22028257 -0.0751953 147.5625 -0.0625 C149.82226466 -0.05748728 152.08203037 -0.05292398 154.34179688 -0.04882812 C159.89455391 -0.03777561 165.44727225 -0.02102024 171 0 C163.4711217 20.6383975 155.82547752 41.23081976 148.10089493 61.79669189 C146.94190158 64.88292079 145.78377611 67.96947512 144.62559605 71.05600929 C133.11969977 101.71756181 121.56694429 132.3614337 110 163 C93.83 163 77.66 163 61 163 C55.24777737 147.86458363 49.50965263 132.72456991 43.828125 117.5625 C43.56548166 116.86160311 43.30283833 116.16070621 43.0322361 115.43857002 C41.38792404 111.04997069 39.74435115 106.66109472 38.10089493 102.27217484 C35.45266042 95.20050053 32.80293284 88.12938582 30.15234375 81.05859375 C29.85583609 80.26760221 29.55932842 79.47661068 29.25383568 78.6616497 C24.89324734 67.03070683 20.51729318 55.40563762 16.12890625 43.78515625 C15.85778141 43.06706158 15.58665657 42.3489669 15.30731583 41.60911179 C12.72051164 34.75777713 10.1325273 27.90689428 7.53977299 21.05780888 C6.38604694 18.00902429 5.23424918 14.95951105 4.08203125 11.91015625 C3.4559774 10.25935814 3.4559774 10.25935814 2.817276 8.57521057 C2.44291916 7.58367477 2.06856232 6.59213898 1.68286133 5.57055664 C1.35570633 4.70628555 1.02855133 3.84201447 0.69148254 2.95155334 C0 1 0 1 0 0 Z " fill="#C62F9D" transform="translate(405,216)"/>
<path d="M0 0 C1.18916016 0.00161133 2.37832031 0.00322266 3.60351562 0.00488281 C17.53995248 0.19708354 30.1648502 3.03412299 43.0625 8.375 C42.46491829 15.06222395 40.26104074 21.02141773 38 27.3125 C37.43442383 28.91061523 37.43442383 28.91061523 36.85742188 30.54101562 C35.93157983 33.15446849 34.99980537 35.76564121 34.0625 38.375 C32.44408203 37.941875 32.44408203 37.941875 30.79296875 37.5 C18.25543447 34.32357973 1.66818002 30.42457208 -10.2890625 37.25390625 C-10.83304688 37.62386719 -11.37703125 37.99382812 -11.9375 38.375 C-12.845 38.931875 -13.7525 39.48875 -14.6875 40.0625 C-25.2635692 50.9323489 -25.38473731 65.74784734 -25.36987305 79.96362305 C-25.37890412 81.7189248 -25.38923462 83.47422028 -25.40075684 85.22950745 C-25.428195 89.9642592 -25.43759334 94.69889085 -25.44361091 99.43371177 C-25.45302907 104.39317768 -25.47923513 109.35255509 -25.50361633 114.31196594 C-25.54719061 123.68973009 -25.57579321 133.06747697 -25.59893972 142.44531137 C-25.62604014 153.1273975 -25.66994859 163.8093942 -25.71522844 174.49141634 C-25.80794478 196.45257529 -25.87746661 218.4137257 -25.9375 240.375 C-39.7975 240.375 -53.6575 240.375 -67.9375 240.375 C-67.9375 197.145 -67.9375 153.915 -67.9375 109.375 C-76.8475 109.375 -85.7575 109.375 -94.9375 109.375 C-94.9375 100.795 -94.9375 92.215 -94.9375 83.375 C-92.153125 82.570625 -89.36875 81.76625 -86.5 80.9375 C-85.64220947 80.68556885 -84.78441895 80.4336377 -83.90063477 80.17407227 C-78.57168301 78.66562681 -73.45592638 77.85558368 -67.9375 77.375 C-67.95844727 76.78710693 -67.97939453 76.19921387 -68.00097656 75.59350586 C-68.63756194 54.93469866 -66.12125037 35.99469905 -51.6875 19.9375 C-37.89654851 5.40677682 -19.51878346 -0.02755334 0 0 Z " fill="#C62F9D" transform="translate(1238.9375,138.625)"/>
<path d="M0 0 C1.18916016 0.00161133 2.37832031 0.00322266 3.60351562 0.00488281 C17.53995248 0.19708354 30.1648502 3.03412299 43.0625 8.375 C42.46491829 15.06222395 40.26104074 21.02141773 38 27.3125 C37.43442383 28.91061523 37.43442383 28.91061523 36.85742188 30.54101562 C35.93157983 33.15446849 34.99980537 35.76564121 34.0625 38.375 C32.44408203 37.941875 32.44408203 37.941875 30.79296875 37.5 C18.25543447 34.32357973 1.66818002 30.42457208 -10.2890625 37.25390625 C-10.83304687 37.62386719 -11.37703125 37.99382812 -11.9375 38.375 C-12.845 38.931875 -13.7525 39.48875 -14.6875 40.0625 C-25.2635692 50.9323489 -25.38473731 65.74784734 -25.36987305 79.96362305 C-25.37890412 81.7189248 -25.38923462 83.47422028 -25.40075684 85.22950745 C-25.428195 89.9642592 -25.43759334 94.69889085 -25.44361091 99.43371177 C-25.45302907 104.39317768 -25.47923513 109.35255509 -25.50361633 114.31196594 C-25.54719061 123.68973009 -25.57579321 133.06747697 -25.59893972 142.44531137 C-25.62604014 153.1273975 -25.66994859 163.8093942 -25.71522844 174.49141634 C-25.80794478 196.45257529 -25.87746661 218.4137257 -25.9375 240.375 C-39.7975 240.375 -53.6575 240.375 -67.9375 240.375 C-67.9375 197.145 -67.9375 153.915 -67.9375 109.375 C-76.8475 109.375 -85.7575 109.375 -94.9375 109.375 C-94.9375 100.795 -94.9375 92.215 -94.9375 83.375 C-92.153125 82.570625 -89.36875 81.76625 -86.5 80.9375 C-85.64220947 80.68556885 -84.78441895 80.4336377 -83.90063477 80.17407227 C-78.57168301 78.66562681 -73.45592638 77.85558368 -67.9375 77.375 C-67.95844727 76.78710693 -67.97939453 76.19921387 -68.00097656 75.59350586 C-68.63756194 54.93469866 -66.12125037 35.99469905 -51.6875 19.9375 C-37.89654851 5.40677682 -19.51878346 -0.02755334 0 0 Z " fill="#C62F9D" transform="translate(279.9375,138.625)"/>
<path d="M0 0 C0.71625549 -0.00295074 1.43251099 -0.00590149 2.17047119 -0.00894165 C14.16539897 -0.02018385 25.34172935 1.18385768 36.9375 4.3125 C38.61779297 4.70501953 38.61779297 4.70501953 40.33203125 5.10546875 C45.26440049 6.3540825 45.26440049 6.3540825 46.9375 7.3125 C49.29179141 12.88580878 45.5626529 19.18516693 43.6875 24.5 C43.27886719 25.71365234 42.87023437 26.92730469 42.44921875 28.17773438 C42.04832031 29.32951172 41.64742187 30.48128906 41.234375 31.66796875 C40.86666992 32.72653076 40.49896484 33.78509277 40.12011719 34.87573242 C39.72985352 35.67986572 39.33958984 36.48399902 38.9375 37.3125 C35.46214721 38.47095093 33.55689994 37.85318705 30.0847168 36.97680664 C21.57228858 34.83981351 13.40265034 33.89678251 4.625 33.875 C3.65336914 33.8654126 2.68173828 33.8558252 1.68066406 33.84594727 C-4.50186838 33.91887997 -9.23467089 34.58218224 -13.875 39.0625 C-15.54557261 42.22779548 -15.93921301 44.73717732 -16.0625 48.3125 C-13.59179648 55.87902954 -7.68046355 59.60450654 -0.91967773 63.07470703 C4.41761523 65.73447884 9.8158642 68.25932836 15.2265625 70.765625 C32.20014637 78.65631902 50.93044349 87.45994292 58.01953125 106.16796875 C61.74655315 118.93500121 60.01984419 131.83385397 53.76171875 143.42578125 C44.97870797 157.3243786 32.48667154 165.09826999 16.63427734 168.85888672 C-9.6606219 173.28183827 -38.87774656 167.75494421 -63.0625 157.3125 C-61.65893358 150.16908565 -59.48868635 143.56067592 -56.9375 136.75 C-56.37869141 135.23696289 -56.37869141 135.23696289 -55.80859375 133.69335938 C-54.89837803 131.23110915 -53.98293712 128.77094342 -53.0625 126.3125 C-52.4233667 126.51407715 -51.7842334 126.7156543 -51.12573242 126.92333984 C-48.16924129 127.85152505 -45.20968216 128.76954319 -42.25 129.6875 C-40.74276367 130.16316406 -40.74276367 130.16316406 -39.20507812 130.6484375 C-28.55148947 133.93700506 -18.53208359 135.67265358 -7.375 135.6875 C-6.39466797 135.71199219 -5.41433594 135.73648438 -4.40429688 135.76171875 C1.82971559 135.78677171 6.81187199 135.0645784 11.9375 131.3125 C14.52881013 128.40840773 15.82720934 125.96120403 16.08984375 122.03515625 C15.75060952 116.80746985 14.46370648 114.27331208 10.9375 110.3125 C2.58189079 104.18729036 -6.8231291 99.88407755 -16.25 95.6875 C-33.40491306 88.01366531 -50.29528137 79.62565063 -57.9375 61.3125 C-61.23809192 50.13370951 -59.8977919 37.09061536 -54.80859375 26.76953125 C-47.05712042 12.80843077 -35.05079303 5.86501891 -20.0625 1.3125 C-13.48662901 -0.25650497 -6.72243127 0.02414159 0 0 Z " fill="#22A796" transform="translate(822.0625,212.6875)"/>
<path d="M0 0 C17.16 0 34.32 0 52 0 C53.918125 3.7125 55.83625 7.425 57.8125 11.25 C62.62583096 20.54128933 67.54623102 29.76172257 72.65942383 38.89160156 C73.08634521 39.65698242 73.5132666 40.42236328 73.953125 41.2109375 C74.51241699 42.20552979 74.51241699 42.20552979 75.08300781 43.22021484 C76 45 76 45 77 48 C85.73591033 32.03671243 94.38293209 16.02774631 103 0 C119.5 0 136 0 153 0 C145.04954663 13.62934863 145.04954663 13.62934863 140.75 19.9375 C135.33233366 27.97961081 129.99689231 36.0737218 124.6875 44.1875 C124.2841745 44.80361145 123.880849 45.4197229 123.46530151 46.05450439 C115.62852 58.02653286 107.80945837 70.01013236 100 82 C103.78648929 87.73197853 107.64694183 93.3994547 111.625 99 C112.67971982 100.48956045 113.73440638 101.97914445 114.7890625 103.46875 C115.32176758 104.22027344 115.85447266 104.97179687 116.40332031 105.74609375 C118.94031337 109.3273659 121.46991619 112.91384508 124 116.5 C124.99996162 117.91669376 125.9999617 119.33336037 127 120.75 C129 123.58333333 131 126.41666667 133 129.25 C133.49580566 129.95229736 133.99161133 130.65459473 134.50244141 131.37817383 C135.49466183 132.78400815 136.48652835 134.19009233 137.47802734 135.59643555 C140.09409224 139.30604485 142.71755366 143.0101367 145.3515625 146.70703125 C145.89941406 147.47789062 146.44726562 148.24875 147.01171875 149.04296875 C148.06154181 150.51983848 149.11351437 151.99518337 150.16796875 153.46875 C150.64105469 154.13519531 151.11414062 154.80164063 151.6015625 155.48828125 C152.01744629 156.07134033 152.43333008 156.65439941 152.86181641 157.25512695 C154.07055469 159.10816267 155.02533537 161.0158144 156 163 C110.53263057 167.35049785 110.53263057 167.35049785 101.28808594 160.8671875 C95.7512902 155.11531091 93.10972864 148.00286338 90.42626953 140.58984375 C88.16557213 134.8997899 84.78524007 130.13516386 81.3125 125.125 C79.89772347 122.98481793 78.48786002 120.84138272 77.08203125 118.6953125 C76.29171258 117.49736876 75.50083119 116.29979612 74.70947266 115.10253906 C71.4938508 110.23497267 68.28422823 105.36345616 65.07421875 100.4921875 C61.27214508 94.72289904 57.46974713 88.95382564 53.66577148 83.18579102 C45.75057169 71.18273667 37.85749023 59.16592229 30 47.125 C27.0063129 42.53750782 24.00496429 37.95510777 21 33.375 C20.57276642 32.72365585 20.14553284 32.07231171 19.70535278 31.40122986 C17.18932089 27.56538054 17.18932089 27.56538054 14.67181396 23.73049927 C10.73838874 17.74118488 6.81722027 11.7441793 2.9453125 5.71484375 C2.37570801 4.82788818 1.80610352 3.94093262 1.21923828 3.02709961 C0 1 0 1 0 0 Z " fill="#22A796" transform="translate(979,216)"/>
<path d="M0 0 C1.62209633 -0.00956978 1.62209633 -0.00956978 3.27696228 -0.01933289 C5.01460594 -0.02100212 5.01460594 -0.02100212 6.78735352 -0.02270508 C7.98683121 -0.02603348 9.1863089 -0.02936188 10.4221344 -0.03279114 C12.95638649 -0.03784903 15.49064522 -0.04019981 18.02490234 -0.04003906 C21.89830499 -0.04222619 25.77142308 -0.06039608 29.64477539 -0.0793457 C32.10896713 -0.08227973 34.57316021 -0.08426446 37.03735352 -0.08520508 C38.77196083 -0.09598335 38.77196083 -0.09598335 40.54161072 -0.10697937 C52.84191137 -0.07208612 52.84191137 -0.07208612 58.22875977 4.45776367 C61.63579525 8.52727828 62.77085153 11.88374419 62.52563477 17.16088867 C62.46388062 18.64322998 62.46388062 18.64322998 62.40087891 20.15551758 C62.34407959 21.22463379 62.28728027 22.29375 62.22875977 23.39526367 C62.17647217 24.51465332 62.12418457 25.63404297 62.0703125 26.78735352 C61.91976656 29.89609534 61.75725363 33.00391836 61.58807373 36.11169434 C61.47425098 38.2291406 61.36588145 40.34681512 61.25854492 42.46459961 C61.06959534 46.1719893 60.87007534 49.87867815 60.66271973 53.58508301 C60.58240422 55.03003568 60.50416284 56.47510528 60.42810059 57.92028809 C59.42740638 76.65532633 59.42740638 76.65532633 55.22875977 82.02026367 C52.33889705 84.25333941 49.93792974 85.08457896 46.47875977 86.14526367 C46.45592422 86.74787018 46.43308868 87.35047668 46.40956116 87.97134399 C46.16709427 94.3654553 45.92345531 100.75952125 45.67919922 107.15356445 C45.58874224 109.52529829 45.49856325 111.89704275 45.40869141 114.26879883 C45.1911745 120.00687047 44.96901933 125.74467073 44.73706055 131.48217773 C44.56263959 135.82747621 44.41663645 140.17221537 44.29467773 144.51928711 C44.22980346 146.48576068 44.1648655 148.45223215 44.09985352 150.41870117 C44.07218651 151.74618881 44.07218651 151.74618881 44.04396057 153.10049438 C43.84970996 158.47039968 43.07108088 162.4013122 40.47875977 167.14526367 C35.71341422 170.3221607 30.28283981 169.55579471 24.7097168 169.57080078 C22.61721317 169.58268725 20.5276713 169.63186239 18.43579102 169.68237305 C17.09856576 169.69183951 15.76132247 169.69907348 14.42407227 169.70385742 C12.60673584 169.72403931 12.60673584 169.72403931 10.75268555 169.74462891 C6.57801949 168.98036305 5.13306224 167.37530438 2.47875977 164.14526367 C1.13683266 161.46140946 1.22974048 159.23656051 1.08984375 156.23364258 C1.02985703 154.99119781 0.9698703 153.74875305 0.9080658 152.46865845 C0.84681887 151.10305558 0.78575283 149.73744459 0.72485352 148.37182617 C0.65933628 146.96852167 0.59349995 145.56523203 0.52735901 144.16195679 C0.38926556 141.21136546 0.25427342 138.26065355 0.12158203 135.30981445 C-0.04717157 131.55993595 -0.22226081 127.81038865 -0.39959812 124.06090736 C-0.53647477 121.15589223 -0.67048843 118.25075036 -0.80363274 115.34556198 C-0.86709779 113.96548519 -0.93127234 112.58544081 -0.99621773 111.20543289 C-1.38726534 102.8453479 -1.60850891 94.51464038 -1.52124023 86.14526367 C-2.40811523 86.06276367 -3.29499023 85.98026367 -4.20874023 85.89526367 C-8.16660942 84.99914235 -9.76296523 84.1271826 -12.52124023 81.14526367 C-15.5999664 74.58003414 -16.11782618 67.82533353 -16.47045898 60.68041992 C-16.53280228 59.60706894 -16.59514557 58.53371796 -16.65937805 57.42784119 C-16.85402771 54.02168099 -17.03129994 50.6148588 -17.20874023 47.20776367 C-17.33853191 44.9244996 -17.46938174 42.64129543 -17.60131836 40.3581543 C-17.72530691 38.15312892 -17.84838402 35.94805207 -17.97045898 33.74291992 C-18.02666916 32.7290773 -18.08287933 31.71523468 -18.14079285 30.67066956 C-18.38229197 26.01493826 -18.57972053 21.35914154 -18.66503906 16.69775391 C-18.68037186 15.92576157 -18.69570465 15.15376923 -18.71150208 14.35838318 C-18.29589851 9.5240961 -15.96219298 5.58621641 -12.58374023 2.20776367 C-8.57741232 0.14389778 -4.43944868 0.01785298 0 0 Z " fill="#22A796" transform="translate(910.521240234375,212.854736328125)"/>
<path d="M0 0 C14.85 0 29.7 0 45 0 C45 53.79 45 107.58 45 163 C30.15 163 15.3 163 0 163 C0 109.21 0 55.42 0 0 Z " fill="#C62F9D" transform="translate(1297,216)"/>
<path d="M0 0 C14.85 0 29.7 0 45 0 C45 53.79 45 107.58 45 163 C30.15 163 15.3 163 0 163 C0 109.21 0 55.42 0 0 Z " fill="#C62F9D" transform="translate(338,216)"/>
<path d="M0 0 C7.68453881 7.27761822 11.85241858 16.35600149 12.23046875 26.94140625 C11.35254159 37.82770309 7.76848795 46.96588705 -0.08203125 54.81640625 C-7.71356708 60.15592042 -14.52960592 63.20583297 -23.95703125 63.12890625 C-24.66666016 63.1239917 -25.37628906 63.11907715 -26.10742188 63.11401367 C-31.55631512 62.99182713 -35.2680757 62.30934752 -40.08203125 59.81640625 C-40.73171875 59.48769531 -41.38140625 59.15898437 -42.05078125 58.8203125 C-50.42472641 54.16633144 -56.58163008 47.06768497 -59.45703125 37.90234375 C-61.46031525 28.01112902 -61.13594302 17.71833664 -56.08203125 8.81640625 C-49.16140155 -0.66036959 -41.36421546 -6.39724029 -29.89453125 -8.87109375 C-18.42129091 -9.81152329 -9.02722418 -7.1893462 0 0 Z " fill="#22A796" transform="translate(956.08203125,135.18359375)"/>
<path d="M0 0 C4.27828289 1.86446353 5.88896631 4.57212578 8.0625 8.5625 C8.41248047 9.2009082 8.76246094 9.83931641 9.12304688 10.49707031 C10.10380777 12.32099006 11.05793382 14.15585347 12 16 C12.58587891 17.13501953 12.58587891 17.13501953 13.18359375 18.29296875 C16.4968745 26.23533074 16.30993173 37.262499 14.4140625 45.56640625 C13.44216807 47.84456245 12.26733573 49.86887492 11 52 C10.24842912 53.42221939 9.50442383 54.84844799 8.765625 56.27734375 C2.35184513 68.64815487 2.35184513 68.64815487 1 70 C-0.5348297 70.09319449 -2.07392082 70.117458 -3.61157227 70.11352539 C-4.59251358 70.11344986 -5.5734549 70.11337433 -6.5841217 70.11329651 C-7.6507756 70.10813522 -8.7174295 70.10297394 -9.81640625 70.09765625 C-11.44569313 70.09553383 -11.44569313 70.09553383 -13.1078949 70.09336853 C-16.59279075 70.08775048 -20.07762342 70.07519492 -23.5625 70.0625 C-25.91861887 70.05748733 -28.27473874 70.05292402 -30.63085938 70.04882812 C-36.42059464 70.03777519 -42.21029281 70.02101951 -48 70 C-43.64891255 63.0596602 -39.16812876 56.24939864 -34.4375 49.5625 C-33.20830549 47.81512375 -31.97913965 46.06772734 -30.75 44.3203125 C-30.12867188 43.43891602 -29.50734375 42.55751953 -28.8671875 41.64941406 C-25.88413247 37.41665867 -22.90932421 33.1781462 -19.9375 28.9375 C-19.08345581 27.71897339 -19.08345581 27.71897339 -18.2121582 26.47583008 C-12.07156107 17.6984548 -6.02769019 8.85515875 0 0 Z " fill="#22A796" transform="translate(1024,309)"/>
<path d="M0 0 C5.97889175 3.72019931 11.48306094 9.77377829 13.5 16.5625 C14.45216664 25.89373304 14.58210413 34.87214718 8.5 42.5625 C1.57495673 49.23623121 -5.04203043 50.97608973 -14.47436523 50.92602539 C-22.35420709 50.72328503 -26.59928669 48.4709178 -32.3125 43.3125 C-38.43651961 36.67115453 -39.13439938 29.92347594 -38.90625 21.03515625 C-37.92946456 12.68551917 -33.87738807 7.23385774 -27.5625 1.9375 C-20.34669701 -2.87303533 -8.00759059 -3.50032403 0 0 Z " fill="#C62F9D" transform="translate(1331.5,144.4375)"/>
<path d="M0 0 C5.97889175 3.72019931 11.48306094 9.77377829 13.5 16.5625 C14.45216664 25.89373304 14.58210413 34.87214718 8.5 42.5625 C1.57495673 49.23623121 -5.04203043 50.97608973 -14.47436523 50.92602539 C-22.35420709 50.72328503 -26.59928669 48.4709178 -32.3125 43.3125 C-38.43651961 36.67115453 -39.13439938 29.92347594 -38.90625 21.03515625 C-37.92946456 12.68551917 -33.87738807 7.23385774 -27.5625 1.9375 C-20.34669701 -2.87303533 -8.00759059 -3.50032403 0 0 Z " fill="#C62F9D" transform="translate(372.5,144.4375)"/>
<path d="M0 0 C1.32874146 0.00374634 1.32874146 0.00374634 2.68432617 0.00756836 C4.36619019 0.02122437 4.36619019 0.02122437 6.08203125 0.03515625 C9.65015625 0.05578125 13.21828125 0.07640625 16.89453125 0.09765625 C16.89453125 10.65765625 16.89453125 21.21765625 16.89453125 32.09765625 C1.71453125 32.09765625 -13.46546875 32.09765625 -29.10546875 32.09765625 C-26.66523829 19.89650394 -21.11688537 9.7616157 -10.73046875 2.53515625 C-6.96479193 0.4729999 -4.22686261 -0.02443273 0 0 Z " fill="#C62F9D" transform="translate(1252.10546875,215.90234375)"/>
<path d="M0 0 C1.32874146 0.00374634 1.32874146 0.00374634 2.68432617 0.00756836 C4.36619019 0.02122437 4.36619019 0.02122437 6.08203125 0.03515625 C9.65015625 0.05578125 13.21828125 0.07640625 16.89453125 0.09765625 C16.89453125 10.65765625 16.89453125 21.21765625 16.89453125 32.09765625 C1.71453125 32.09765625 -13.46546875 32.09765625 -29.10546875 32.09765625 C-26.66523829 19.89650394 -21.11688537 9.7616157 -10.73046875 2.53515625 C-6.96479193 0.4729999 -4.22686261 -0.02443273 0 0 Z " fill="#C62F9D" transform="translate(293.10546875,215.90234375)"/>
</svg>
